<svg xmlns="http://www.w3.org/2000/svg" viewBox="0 0 32 32">
  <rect width="32" height="32" rx="8" fill="#1B5E45"/>
  <rect x="7" y="6" width="18" height="20" rx="3" fill="#F4F1EA"/>
  <rect x="9" y="8" width="14" height="6" rx="1.2" fill="#1B5E45"/>
  <rect x="10.2" y="11.4" width="2.4" height="2" fill="#F4F1EA"/>
  <rect x="13.8" y="10.2" width="2.4" height="3.2" fill="#F4F1EA"/>
  <rect x="17.4" y="9.2" width="2.4" height="4.2" fill="#C9A227"/>
  <rect x="10" y="16.2" width="2.4" height="2.4" rx="0.5" fill="#1B5E45"/>
  <rect x="13.6" y="16.2" width="2.4" height="2.4" rx="0.5" fill="#1B5E45"/>
  <rect x="17.2" y="16.2" width="2.4" height="2.4" rx="0.5" fill="#1B5E45"/>
  <rect x="10" y="19.4" width="2.4" height="2.4" rx="0.5" fill="#1B5E45"/>
  <rect x="13.6" y="19.4" width="2.4" height="2.4" rx="0.5" fill="#1B5E45"/>
  <rect x="17.2" y="19.4" width="2.4" height="2.4" rx="0.5" fill="#1B5E45"/>
  <rect x="10" y="22.6" width="2.4" height="2.4" rx="0.5" fill="#1B5E45"/>
  <rect x="13.6" y="22.6" width="2.4" height="2.4" rx="0.5" fill="#1B5E45"/>
  <rect x="17.2" y="22.6" width="2.4" height="2.4" rx="0.5" fill="#C9A227"/>
</svg>
